HIERARCHY
ROOT Hips
{
	OFFSET 0.000000 0.000000 0.000000
	CHANNELS 6 Xposition Yposition Zposition Zrotation Yrotation Xrotation 
	JOINT LHipJoint
	{
		OFFSET 0.000000 0.000000 0.000000
		CHANNELS 3 Zrotation Yrotation Xrotation
		JOINT LeftUpLeg
		{
			OFFSET 1.363060 -1.794630 0.839290
			CHANNELS 3 Zrotation Yrotation Xrotation
			JOINT LeftLeg
			{
				OFFSET 2.448110 -6.726130 0.000000
				CHANNELS 3 Zrotation Yrotation Xrotation
				JOINT LeftFoot
				{
					OFFSET 2.562200 -7.039590 0.000000
					CHANNELS 3 Zrotation Yrotation Xrotation
					JOINT LeftToeBase
					{
						OFFSET 0.157640 -0.433110 2.322550
						CHANNELS 3 Zrotation Yrotation Xrotation
						End Site
						{
							OFFSET 0.000000 0.000000 0.000000
						}
					}
				}
			}
		}
	}
	JOINT RHipJoint
	{
		OFFSET 0.000000 0.000000 0.000000
		CHANNELS 3 Zrotation Yrotation Xrotation
		JOINT RightUpLeg
		{
			OFFSET -1.305520 -1.794630 0.839290
			CHANNELS 3 Zrotation Yrotation Xrotation
			JOINT RightLeg
			{
				OFFSET -2.542530 -6.985550 0.000000
				CHANNELS 3 Zrotation Yrotation Xrotation
				JOINT RightFoot
				{
					OFFSET -2.568260 -7.056230 0.000000
					CHANNELS 3 Zrotation Yrotation Xrotation
					JOINT RightToeBase
					{
						OFFSET -0.164730 -0.452590 2.363150
						CHANNELS 3 Zrotation Yrotation Xrotation
						End Site
						{
							OFFSET 0.000000 0.000000 0.000000
						}
					}
				}
			}
		}
	}
}
MOTION
Frames: 27
Frame Time: 0.008333
0.838007 16.763962 0.504124 168.742925 -78.840558 -164.492353 -9.814938 0.222928 3.346520 -11.295677 -2.764083 -32.961650 -1.720215 0.312338 21.182396 1.254433 8.079805 -0.184242 1.348000 0.000000 -21.276700 10.289289 -4.733101 -1.089442 -0.720769 -9.039718 12.867384 0.624765 -2.657630 23.993544 0.141858 7.081641 17.325621 2.895300 0.000000 -93.346000
0.626025 16.717132 0.494847 166.494405 -79.294780 -162.482154 -9.763766 0.248513 3.201817 -11.998661 -2.877684 -33.193050 -1.635574 0.498179 23.660213 1.283068 8.192095 -0.469991 1.298400 -0.000000 -21.051800 10.555469 -4.738565 -1.195114 -1.667609 -9.674101 11.697128 0.362098 -2.870212 27.355030 -0.015347 7.658705 19.657150 3.506700 0.000000 -94.377800
0.418156 16.666706 0.486545 164.040598 -79.642716 -160.263678 -9.690898 0.272703 3.012743 -12.807145 -2.783705 -33.428297 -1.573757 0.668045 26.135141 1.308722 8.235658 -1.072967 1.189300 0.000000 -20.736900 10.858177 -4.714627 -1.286337 -2.704074 -10.315139 10.312055 0.107513 -3.055817 30.964254 -0.209161 8.148429 22.031765 4.129200 0.000001 -94.220400
0.215132 16.612670 0.479159 161.477780 -79.880852 -157.932862 -9.594392 0.299571 2.786798 -13.690520 -2.529922 -33.645280 -1.532259 0.824188 28.585777 1.335088 8.232295 -1.988558 1.025200 0.000001 -20.323700 11.186699 -4.653593 -1.370394 -3.788246 -10.929769 8.747285 -0.128323 -3.219491 34.786715 -0.436851 8.366758 24.319202 4.637600 0.000000 -92.780300
0.017752 16.555311 0.472669 158.915996 -80.013449 -155.604044 -9.476331 0.332380 2.533773 -14.612720 -2.168488 -33.818464 -1.508208 0.968796 30.982000 1.365581 8.202227 -3.189038 0.812900 0.000000 -19.823300 11.527173 -4.551385 -1.456499 -4.875874 -11.495364 7.040381 -0.340441 -3.372437 38.781463 -0.690616 8.127150 26.377141 4.880500 -0.000000 -90.078800
-0.173899 16.495455 0.467014 156.436768 -80.053613 -153.356634 -9.340356 0.373499 2.265684 -15.543089 -1.757326 -33.920512 -1.499008 1.103095 33.285901 1.403348 8.165309 -4.627201 0.561800 0.000000 -19.261399 11.867859 -4.408490 -1.553275 -5.934364 -12.005518 5.221118 -0.531329 -3.528520 42.904294 -0.961444 7.279031 28.061081 4.717600 -0.000001 -86.260000
-0.359779 16.434211 0.461883 154.055932 -80.019436 -151.206941 -9.188337 0.423696 1.995337 -16.462466 -1.356603 -33.925194 -1.502487 1.227021 35.452556 1.451396 8.143659 -6.239065 0.282499 -0.000000 -18.679201 12.202978 -4.227844 -1.666916 -6.946686 -12.465673 3.309029 -0.709901 -3.701042 47.108426 -1.241805 5.742819 29.231709 4.062400 -0.000000 -81.528200
-0.540267 16.373133 0.457417 151.831264 -79.933914 -149.208418 -9.028106 0.481655 1.732376 -17.342343 -1.006053 -33.817180 -1.515697 1.341056 37.449736 1.510264 8.144710 -7.958228 -0.016800 -0.000000 -18.121200 12.522823 -4.014711 -1.799392 -7.877399 -12.871572 1.328968 -0.888294 -3.898115 51.326742 -1.527464 3.516988 29.788245 2.909100 0.000000 -76.292900
-0.716028 16.313970 0.453521 149.765488 -79.818182 -147.356962 -8.863819 0.545721 1.485436 -18.168865 -0.738578 -33.588181 -1.536232 1.444678 39.246385 1.579939 8.176830 -9.713861 -0.326900 0.000000 -17.631800 12.824032 -3.775415 -1.948483 -8.706828 -13.223110 -0.706402 -1.078258 -4.123067 55.494235 -1.814054 0.716526 29.657020 1.360600 -0.000001 -70.844600
-0.887636 16.258509 0.450285 147.866175 -79.691062 -145.655342 -8.700551 0.613451 1.259437 -18.930348 -0.568143 -33.239936 -1.561772 1.537613 40.822177 1.658699 8.241005 -11.440409 -0.639500 0.000000 -17.244101 13.103116 -3.516736 -2.109257 -9.414143 -13.515635 -2.786849 -1.288614 -4.374070 59.543235 -2.095823 -2.453871 28.811295 -0.393900 0.000000 -65.407100
-1.055954 16.208444 0.447741 146.144738 -79.565953 -144.107227 -8.543151 0.682716 1.056313 -19.619308 -0.492043 -32.783270 -1.590391 1.619706 42.167691 1.743613 8.332823 -13.082942 -0.946800 0.000000 -16.972200 13.357096 -3.245852 -2.274565 -9.982589 -13.743199 -4.906792 -1.523577 -4.644871 63.408172 -2.364492 -5.736458 27.273244 -2.121000 0.000000 -60.087700
-1.221855 16.165422 0.445918 144.604495 -79.451331 -142.708829 -8.394339 0.752160 0.876118 -20.235299 -0.496626 -32.232347 -1.620803 1.690421 43.277205 1.831278 8.446339 -14.596479 -1.241100 0.000001 -16.808700 13.584778 -2.969467 -2.435660 -10.404450 -13.900344 -7.063580 -1.781742 -4.926105 67.027579 -2.609590 -8.868671 25.113894 -3.598000 0.000000 -54.899500
-1.386199 16.130718 0.444880 143.263546 -79.352122 -141.473365 -8.257912 0.820622 0.715850 -20.776281 -0.553704 -31.604577 -1.652337 1.749448 44.153853 1.917485 8.569567 -15.952658 -1.515500 0.000001 -16.727300 13.783537 -2.693685 -2.583902 -10.672633 -13.980371 -9.252871 -2.055927 -5.206396 70.345807 -2.819367 -11.628096 22.440946 -4.660301 0.000000 -49.802199
-1.549628 16.105194 0.444598 142.139899 -79.270502 -140.417543 -8.137648 0.887324 0.570238 -21.240618 -0.628001 -30.916334 -1.685135 1.796708 44.806590 1.997769 8.686336 -17.139237 -1.764000 0.000000 -16.688100 13.950368 -2.423366 -2.712339 -10.784344 -13.978510 -11.466856 -2.333835 -5.474165 73.316685 -2.981765 -13.852800 19.382782 -5.224400 0.000000 -44.731100
-1.712811 16.089404 0.445012 141.237781 -79.205881 -139.547889 -8.035018 0.952292 0.434077 -21.630552 -0.686084 -30.177365 -1.720129 1.831718 45.241537 2.068738 8.783194 -18.155648 -1.982200 -0.000000 -16.648099 14.083791 -2.162143 -2.815328 -10.745625 -13.894132 -13.693025 -2.599208 -5.719027 75.900998 -3.085542 -15.444512 16.075609 -5.289900 0.000000 -39.631400
-1.876652 16.083733 0.445888 140.549289 -79.157187 -138.858831 -7.949271 1.016877 0.304464 -21.951078 -0.701777 -29.386606 -1.758896 1.853421 45.458383 2.128304 8.849849 -19.010157 -2.167600 -0.000000 -16.569500 14.183662 -1.913321 -2.887973 -10.570669 -13.731280 -15.912504 -2.833858 -5.932586 78.066297 -3.121564 -16.363024 12.653985 -4.926800 -0.000000 -34.475700
-2.041660 16.087963 0.447088 140.061615 -79.123434 -138.346190 -7.880617 1.081606 0.176786 -22.204327 -0.652920 -28.539523 -1.803475 1.861681 45.461204 2.174924 8.875055 -19.722528 -2.320000 0.000000 -16.425000 14.248808 -1.678151 -2.930151 -10.274281 -13.497961 -18.100343 -3.020499 -6.109074 79.790173 -3.084646 -16.620233 9.245850 -4.255300 0.000001 -29.317001
-2.208573 16.101780 0.448398 139.749248 -79.103166 -137.992089 -7.826831 1.147695 0.050565 -22.395248 -0.532807 -27.621580 -1.855971 1.855667 45.244546 2.208882 8.855400 -20.313262 -2.440900 -0.000000 -16.201900 14.279800 -1.457308 -2.942001 -9.876697 -13.206963 -20.228765 -3.144588 -6.244692 81.054918 -2.975473 -16.271382 5.978781 -3.419900 -0.000001 -24.311600
-2.378190 16.124704 0.449733 139.585125 -79.097373 -137.776473 -7.786031 1.215712 -0.072688 -22.526774 -0.346192 -26.616626 -1.918085 1.834672 44.802400 2.231308 8.790966 -20.803620 -2.533400 0.000000 -15.903300 14.276866 -1.250269 -2.925037 -9.394539 -12.872353 -22.271548 -3.196927 -6.337051 81.850922 -2.802088 -15.411048 2.976757 -2.562400 0.000000 -19.758100
-2.551277 16.156221 0.451064 139.539143 -79.107686 -137.675654 -7.755628 1.285831 -0.188340 -22.601476 -0.111487 -25.503868 -1.990820 1.797479 44.122611 2.244353 8.688748 -21.208940 -2.601100 -0.000001 -15.547299 14.240851 -1.055628 -2.881553 -8.843583 -12.511289 -24.204207 -3.174820 -6.384985 82.174961 -2.579459 -14.163126 0.342402 -1.793000 -0.000001 -15.990600
-2.728439 16.195465 0.452495 139.592948 -79.136843 -137.675319 -7.735137 1.356884 -0.290865 -22.618728 0.145700 -24.271129 -2.074060 1.743343 43.199891 2.250200 8.557550 -21.541231 -2.647800 -0.000001 -15.165200 14.171125 -0.870944 -2.815015 -8.230953 -12.139248 -26.010658 -3.082388 -6.387946 82.035054 -2.328194 -12.673160 -1.854978 -1.176200 -0.000000 -13.347400
-2.910534 16.241755 0.454272 139.737970 -79.189423 -137.765286 -7.724573 1.427504 -0.372062 -22.576679 0.392353 -22.908587 -2.166286 1.670950 42.027708 2.251267 8.411228 -21.803059 -2.676700 -0.000000 -14.797900 14.066874 -0.694616 -2.728716 -7.559057 -11.772079 -27.680421 -2.927809 -6.346347 81.445180 -2.071026 -11.093457 -3.609825 -0.726200 -0.000000 -11.919100
-3.097945 16.294383 0.456844 139.978180 -79.270141 -137.952457 -7.725798 1.495240 -0.424351 -22.471360 0.594727 -21.408857 -2.264636 1.579108 40.600444 2.249453 8.266319 -21.986907 -2.690000 0.000000 -14.490100 13.926165 -0.525660 -2.627099 -6.825380 -11.422026 -29.203292 -2.720911 -6.261184 80.421161 -1.829815 -9.570018 -4.965617 -0.423300 0.000000 -11.605600
-3.291287 16.352474 0.460621 140.337855 -79.384184 -138.253706 -7.742407 1.558056 -0.439240 -22.298337 0.722787 -19.781660 -2.364594 1.467091 38.926999 2.246074 8.138352 -22.082278 -2.689200 -0.000000 -14.282900 13.746447 -0.365086 -2.513042 -6.020997 -11.098277 -30.580737 -2.470762 -6.134709 78.986489 -1.622107 -8.226101 -6.029762 -0.228299 -0.000000 -11.907900
-3.490600 16.415316 0.466210 140.859155 -79.536006 -138.711236 -7.779935 1.613398 -0.412321 -22.050465 0.756450 -18.035066 -2.460675 1.334739 37.015884 2.241368 8.042382 -22.070265 -2.674200 -0.000000 -14.209200 13.524372 -0.215014 -2.390036 -5.134987 -10.800951 -31.804818 -2.185529 -5.968611 77.154041 -1.461163 -7.156619 -6.888846 -0.106500 -0.000001 -12.526700
-3.695900 16.482061 0.474139 141.604159 -79.729061 -139.382377 -7.844964 1.659930 -0.340803 -21.719733 0.687993 -16.190714 -2.546416 1.182965 34.889454 2.234546 7.988125 -21.932615 -2.643600 0.000000 -14.286500 13.257090 -0.079400 -2.259596 -4.154950 -10.524987 -32.871805 -1.871829 -5.765242 74.936608 -1.354472 -6.416498 -7.639459 -0.026400 -0.000000 -13.014300
-3.906990 16.551913 0.484882 142.660401 -79.964637 -140.351329 -7.945060 1.697706 -0.226824 -21.296421 0.528022 -14.273746 -2.615178 1.014252 32.578236 2.223466 7.977392 -21.652191 -2.593900 0.000000 -14.518600 12.942260 0.036841 -2.122709 -3.069467 -10.258032 -33.770491 -1.535780 -5.526376 72.337201 -1.305454 -6.023626 -8.338136 0.033500 0.000000 -13.087500
